<svg width="20" height="22" viewBox="0 0 20 22" fill="none" xmlns="http://www.w3.org/2000/svg">
<path d="M13.75 4.74988V3.94973C13.75 2.82976 13.75 2.26991 13.532 1.83973C13.3401 1.46976 13.034 1.16002 12.658 0.969847C12.23 0.75 11.67 0.75 10.55 0.75H8.95C7.83002 0.75 7.27003 0.75 6.84201 0.969847C6.46614 1.16002 6.16 1.46976 5.9681 1.83973C5.74998 2.26991 5.74998 2.82976 5.74998 3.94973V4.74988M7.75006 10.2498V15.2498M11.7499 10.2498V15.2498M0.75 4.74988H18.75M16.7499 4.74988V15.9497C16.7499 17.6298 16.7499 18.47 16.4229 19.1096C16.135 19.6799 15.676 20.1397 15.112 20.4198C14.4699 20.75 13.6299 20.75 11.9499 20.75H7.5501C5.87014 20.75 5.03008 20.75 4.38798 20.4198C3.82395 20.1397 3.36496 19.6799 3.07711 19.1096C2.75008 18.47 2.75008 17.6298 2.75008 15.9497V4.74988" stroke="#C06B6B" stroke-width="1.5" stroke-linecap="round" stroke-linejoin="round"/>
</svg>
