<svg width="20" height="20" viewBox="0 0 20 20" fill="none" xmlns="http://www.w3.org/2000/svg">
<path d="M12.52 16.6301C11.71 16.8401 10.87 16.9401 10 16.9401C6.73 16.9401 3.8 15.4101 1.8 12.9901C0.4 11.3001 0.4 8.69006 1.8 7.01006C1.96 6.81006 2.14 6.62005 2.32 6.43005" stroke="#C09F6B" stroke-width="1.5" stroke-linecap="round" stroke-linejoin="round"/>
<path d="M15.4 15.4101L4.58997 4.59006C6.17997 3.61006 8.01997 3.06006 9.99997 3.06006C13.27 3.06006 16.2 4.59006 18.2 7.01006C19.6 8.69006 19.6 11.3101 18.2 12.9901C17.4 13.9501 16.45 14.7701 15.4 15.4101Z" stroke="#C09F6B" stroke-width="1.5" stroke-linecap="round" stroke-linejoin="round"/>
<path d="M12.1801 12.18L7.82007 7.82005C8.37007 7.26005 9.15007 6.92004 10.0001 6.92004C11.7101 6.92004 13.0801 8.29005 13.0801 10C13.0801 10.85 12.7301 11.62 12.1801 12.18Z" stroke="#C09F6B" stroke-width="1.5" stroke-linecap="round" stroke-linejoin="round"/>
<path d="M0.75 0.75L4.59 4.59L7.82 7.82L12.18 12.18L15.41 15.41L19.25 19.25" stroke="#C09F6B" stroke-width="1.5" stroke-linecap="round" stroke-linejoin="round"/>
</svg>
