<svg width="24" height="22" viewBox="0 0 24 22" fill="none" xmlns="http://www.w3.org/2000/svg">
<path d="M12.8876 10.4118V6.29406M12.8876 14.5293H12.8995M12.8876 21C18.4051 21 22.8875 16.5174 22.8875 11C22.8875 5.48244 18.4051 1 12.8876 1C7.37003 1 2.88747 5.48244 2.88747 11C2.88747 12.1175 3.07547 13.1883 3.40496 14.2001C3.53458 14.5765 3.60533 14.7647 3.61721 14.906C3.61721 15.0468 3.61721 15.1529 3.58183 15.2941C3.54646 15.4353 3.46408 15.5766 3.29958 15.8707L1.38173 19.4355C1.11111 19.9411 0.969866 20.2 1.00524 20.3883C1.02874 20.5646 1.12274 20.7178 1.27561 20.8C1.44036 20.9058 1.73448 20.8706 2.3111 20.8116L8.33452 20.2C8.51115 20.1765 8.60515 20.1648 8.68752 20.1648C8.76989 20.1765 8.82877 20.1765 8.91114 20.2C8.98164 20.2116 9.08751 20.2586 9.28764 20.3296C10.405 20.7649 11.6169 21 12.8876 21Z" stroke="#C0756B" stroke-width="2" stroke-linecap="round" stroke-linejoin="round"/>
</svg>
