<svg width="20" height="20" viewBox="0 0 20 20" fill="none" xmlns="http://www.w3.org/2000/svg">
<path d="M12.781 18.7811V13.381C12.8209 13.026 12.7838 12.6665 12.672 12.3271C12.5762 12.1389 12.4232 11.9859 12.2351 11.8901C11.8956 11.7784 11.5361 11.7412 11.1811 11.7811H8.38105C8.02596 11.7412 7.66645 11.7784 7.32705 11.8901C7.13889 11.9859 6.98592 12.1389 6.89005 12.3271C6.77833 12.6665 6.74115 13.026 6.78105 13.381V18.7811M0.781048 4.78106C0.781048 5.57671 1.09712 6.33979 1.65973 6.9024C2.22233 7.46501 2.9854 7.78106 3.78105 7.78106C4.5767 7.78106 5.33976 7.46501 5.90237 6.9024C6.46498 6.33979 6.78105 5.57671 6.78105 4.78106C6.78105 5.57671 7.09712 6.33979 7.65973 6.9024C8.22233 7.46501 8.9854 7.78106 9.78105 7.78106C10.5767 7.78106 11.3398 7.46501 11.9024 6.9024C12.465 6.33979 12.781 5.57671 12.781 4.78106C12.781 5.57671 13.0971 6.33979 13.6597 6.9024C14.2223 7.46501 14.9854 7.78106 15.781 7.78106C16.5767 7.78106 17.3398 7.46501 17.9024 6.9024C18.465 6.33979 18.781 5.57671 18.781 4.78106M3.98105 18.7811H15.5811C16.2912 18.8609 17.0102 18.7865 17.689 18.563C18.0654 18.3713 18.3713 18.0654 18.563 17.6891C18.7865 17.0103 18.8608 16.2912 18.781 15.5811V3.98108C18.8608 3.27091 18.7865 2.55186 18.563 1.87304C18.3713 1.49674 18.0654 1.19083 17.689 0.999082C17.0102 0.775645 16.2912 0.701269 15.5811 0.781064H3.98105C3.27088 0.701269 2.55186 0.775645 1.87305 0.999082C1.49674 1.19083 1.19079 1.49674 0.999051 1.87304C0.775645 2.55186 0.701285 3.27091 0.781048 3.98108V15.5811C0.701285 16.2912 0.775645 17.0103 0.999051 17.6891C1.19079 18.0654 1.49674 18.3713 1.87305 18.563C2.55186 18.7865 3.27088 18.8609 3.98105 18.7811Z" stroke="#342D23" stroke-width="1.5" stroke-linecap="round" stroke-linejoin="round"/>
</svg>
