<svg width="18" height="22" viewBox="0 0 18 22" fill="none" xmlns="http://www.w3.org/2000/svg">
<path d="M12.7971 2.76592C13.3923 2.73069 13.9896 2.76434 14.5771 2.86602C15.0843 3.00451 15.5466 3.2728 15.9184 3.64458C16.2902 4.01637 16.5585 4.47867 16.697 4.98589C16.7986 5.5734 16.8323 6.17072 16.7971 6.76592V15.9659C16.918 17.0307 16.8053 18.1092 16.467 19.126C16.1873 19.6956 15.7267 20.1561 15.1572 20.4358C14.1403 20.7741 13.0618 20.8868 11.997 20.7659H5.59711C4.53232 20.8868 3.45381 20.7741 2.43696 20.4358C1.8674 20.1561 1.40687 19.6956 1.12714 19.126C0.788865 18.1092 0.676174 17.0307 0.797065 15.9659V6.76592C0.761833 6.17072 0.795486 5.5734 0.897163 4.98589C1.03565 4.47867 1.30394 4.01637 1.67573 3.64458C2.04751 3.2728 2.50982 3.00451 3.01704 2.86602C3.60455 2.76434 4.20186 2.73069 4.79707 2.76592M5.79707 13.7659L7.79707 15.7659L12.2971 11.2659M6.39716 4.76592H11.197C11.5508 4.80665 11.9093 4.76899 12.247 4.65581C12.4395 4.56348 12.5946 4.40833 12.687 4.21587C12.8001 3.87816 12.8378 3.51965 12.7971 3.16582V2.36602C12.8378 2.01219 12.8001 1.65368 12.687 1.31597C12.5946 1.12351 12.4395 0.968357 12.247 0.876028C11.9093 0.762854 11.5508 0.725194 11.197 0.76592H6.39716C6.04333 0.725194 5.68482 0.762854 5.34711 0.876028C5.15465 0.968357 4.9995 1.12351 4.90717 1.31597C4.794 1.65368 4.75634 2.01219 4.79707 2.36602V3.16582C4.75634 3.51965 4.794 3.87816 4.90717 4.21587C4.9995 4.40833 5.15465 4.56348 5.34711 4.65581C5.68482 4.76899 6.04333 4.80665 6.39716 4.76592Z" stroke="#342D23" stroke-width="1.5" stroke-linecap="round" stroke-linejoin="round"/>
</svg>
