<svg width="20" height="20" viewBox="0 0 20 20" fill="none" xmlns="http://www.w3.org/2000/svg">
<path d="M9.51007 12.565C8.0907 12.565 6.94006 11.4144 6.94006 9.99505C6.94006 8.57568 8.0907 7.42505 9.51007 7.42505C10.9294 7.42505 12.0801 8.57568 12.0801 9.99505C12.0801 11.4144 10.9294 12.565 9.51007 12.565Z" stroke="#342D23" stroke-width="1.8" stroke-linecap="round" stroke-linejoin="round"/>
<path d="M17 4.48499C16.57 3.74499 15.63 3.495 14.89 3.925L14.38 4.215C13.35 4.805 12.07 4.06499 12.07 2.87499V2.285C12.07 1.435 11.38 0.744995 10.53 0.744995H8.47002C7.62002 0.744995 6.93004 1.435 6.93004 2.285V2.87499C6.93004 4.06499 5.65001 4.805 4.62001 4.215L4.11004 3.925C3.37004 3.495 2.43002 3.75499 2.00002 4.48499L0.970021 6.26499C0.540021 7.00499 0.800018 7.94499 1.53002 8.37499L2.04003 8.66499C3.07003 9.25499 3.07003 10.745 2.04003 11.335L1.53002 11.625C0.790018 12.055 0.540021 12.995 0.970021 13.735L2.00002 15.515C2.43002 16.255 3.37004 16.505 4.11004 16.075L4.62001 15.785C5.65001 15.195 6.93004 15.935 6.93004 17.125V17.715C6.93004 18.565 7.62002 19.255 8.47002 19.255H10.53C11.38 19.255 12.07 18.565 12.07 17.715V17.125C12.07 15.935 13.35 15.195 14.38 15.785L14.89 16.075C15.63 16.505 16.57 16.245 17 15.515L18.03 13.735C18.46 12.995 18.2 12.055 17.47 11.625L16.96 11.335C15.93 10.745 15.93 9.25499 16.96 8.66499L17.47 8.37499C18.21 7.94499 18.46 6.99499 18.03 6.26499L17 4.48499Z" stroke="#342D23" stroke-width="1.8" stroke-linecap="round" stroke-linejoin="round"/>
</svg>
