<svg width="18" height="20" viewBox="0 0 18 20" fill="none" xmlns="http://www.w3.org/2000/svg">
<path d="M10.5699 19.24H14.3999C15.4999 19.24 16.3999 18.34 16.3999 17.24V6.67004C16.3999 5.57004 15.4999 4.67004 14.3999 4.67004H10.5699" stroke="#342D23" stroke-width="1.5" stroke-linecap="round" stroke-linejoin="round"/>
<path d="M9.70998 6.29V3.52C9.70998 1.99 8.47998 0.75 6.96998 0.75C5.44998 0.75 4.22998 1.99 4.22998 3.52V6.29" stroke="#342D23" stroke-width="1.5" stroke-linecap="round" stroke-linejoin="round"/>
<path d="M7.85994 2.55994C7.74994 2.85994 7.68994 3.17994 7.68994 3.50994V4.40993" stroke="#342D23" stroke-width="1.5" stroke-linecap="round" stroke-linejoin="round"/>
<path d="M9.87999 0.799927C8.93999 0.989927 8.17999 1.66993 7.85999 2.55993" stroke="#342D23" stroke-width="1.5" stroke-linecap="round" stroke-linejoin="round"/>
<path d="M13.18 6.29V3.52C13.18 1.99 11.95 0.75 10.44 0.75C10.25 0.75 10.07 0.770001 9.89001 0.810001" stroke="#342D23" stroke-width="1.5" stroke-linecap="round" stroke-linejoin="round"/>
<path d="M5.12 11.95L6.83 13.69L10.26 10.22" stroke="#342D23" stroke-width="1.5" stroke-linecap="round" stroke-linejoin="round"/>
<path d="M2.75 4.67004C1.65 4.67004 0.75 5.57004 0.75 6.67004V17.24C0.75 18.34 1.65 19.24 2.75 19.24H11.17C12.27 19.24 13.17 18.34 13.17 17.24V6.67004C13.18 5.56004 12.28 4.67004 11.18 4.67004H2.75Z" stroke="#342D23" stroke-width="1.5" stroke-linecap="round" stroke-linejoin="round"/>
</svg>
